<?xml version="1.0" encoding="UTF-8"?>
<svg width="140px" height="46px" viewBox="0 0 140 46" version="1.1" xmlns="http://www.w3.org/2000/svg" xmlns:xlink="http://www.w3.org/1999/xlink">
    <title>Brand/logo-normal</title>
    <g id="Brand/logo-normal" stroke="none" stroke-width="1" fill="none" fill-rule="evenodd">
        <g id="Group" transform="translate(0.000000, 2.000000)">
            <g id="2" opacity="0.2992699" transform="translate(11.000000, 0.000000)" fill="#3167EB">
                <path d="M1.8994937,16.7573584 L16.0416284,2.6152237 C18.3847742,0.272077979 22.1837654,0.272077979 24.5269092,2.6152237 L38.6690434,16.7573584 C41.0121901,19.1005042 41.0121901,22.8994954 38.6690434,25.2426392 L24.5269092,39.3847734 C22.1837654,41.7279201 18.3847742,41.7279201 16.0416284,39.3847734 L1.8994937,25.2426392 C-0.443652021,22.8994954 -0.443652021,19.1005042 1.8994937,16.7573584 Z"></path>
            </g>
            <path d="M2.6152237,16.7573584 L16.7573584,2.6152237 C19.1005042,0.272077979 22.8994954,0.272077979 25.2426392,2.6152237 L39.3847734,16.7573584 C41.7279201,19.1005042 41.7279201,22.8994954 39.3847734,25.2426392 L25.2426392,39.3847734 C22.8994954,41.7279201 19.1005042,41.7279201 16.7573584,39.3847734 L2.6152237,25.2426392 C0.272077979,22.8994954 0.272077979,19.1005042 2.6152237,16.7573584 Z" id="1" fill="#3167EB"></path>
            <g id="Group-2" transform="translate(20.000000, 20.499999) rotate(-45.000000) translate(-20.000000, -20.499999) translate(14.000000, 12.999999)" fill="#FFFFFF">
                <path d="M5.9999952,2.27373675e-13 C7.86501648,2.27373675e-13 9.3786312,1.51380317 9.3786312,3.37703948 L10.0529196,3.37863574 C10.800102,3.37863574 11.4435904,3.98308278 11.4900276,4.72607652 L11.9973252,12.8428291 C12.0438348,13.5870005 11.4783704,14.19027 10.7334036,14.19027 L1.26658675,14.19027 C0.522031764,14.19027 -0.0437713439,13.5858232 0.00266574775,12.8428291 L0.5099628,4.72607652 C0.556473528,3.98190541 1.19862516,3.37863574 1.9470708,3.37863574 L2.62135932,3.37863574 C2.62135932,1.51279276 4.1362212,2.27373675e-13 5.9999952,2.27373675e-13 Z M8.0271766,3.3786358 C8.0271766,2.2601532 7.11859101,1.3514544 5.9999951,1.3514544 C4.88219554,1.3514544 3.9728136,2.25959431 3.9728136,3.37703952 L8.0271766,3.3786358 Z M2.62135945,4.73009 L1.94707075,4.73009 C1.91231402,4.73009 1.86078172,4.77843635 1.85878538,4.81037777 L1.3620433,12.838798 L10.6428723,12.837053 L10.1412051,4.81037777 C10.1392852,4.77965371 10.0864529,4.73009 10.0529197,4.73009 L9.37863081,4.73009 L8.02717645,4.73009 L3.97281382,4.73009 L2.62135945,4.73009 Z" id="Combined-Shape"></path>
            </g>
        </g>
    </g>
</svg>